<svg xmlns="http://www.w3.org/2000/svg" width="39.16" height="39.175" viewBox="0 0 39.16 39.175">
  <path id="Path_2397" data-name="Path 2397" d="M55.2,16.813a1.424,1.424,0,0,0-1.954,0L36.005,34.051,18.767,16.813a1.381,1.381,0,0,0-1.954,1.954L34.051,36.005,16.813,53.244a1.424,1.424,0,0,0,0,1.954,1.387,1.387,0,0,0,1.954,0L36.005,37.959,53.244,55.2a1.387,1.387,0,0,0,1.954,0,1.424,1.424,0,0,0,0-1.954L37.959,36.005,55.2,18.767a1.424,1.424,0,0,0,0-1.954Z" transform="translate(-16.425 -16.425)" fill="#fff"/>
</svg>
