<svg xmlns="http://www.w3.org/2000/svg" width="32.994" height="33.846" viewBox="0 0 32.994 33.846">
  <g id="Group_1" data-name="Group 1" transform="translate(-6.076 -0.926)">
    <path id="Path_1" data-name="Path 1" d="M101.48,83.14l-.491.862a6.342,6.342,0,0,0-8.647,2.381l-.862-.49A7.336,7.336,0,0,1,101.48,83.14Z" transform="translate(-79.743 -75.871)" fill="#101744"/>
    <path id="Path_2" data-name="Path 2" d="M27.039,4.735a12.016,12.016,0,0,0-16.962-.591,12,12,0,1,0,16,17.886c.124-.11.247-.22.369-.334s.241-.229.357-.347A12,12,0,0,0,27.039,4.735Zm.976,8.53a9.757,9.757,0,0,1-9.743,9.418q-.173,0-.348-.006a9.758,9.758,0,1,1,10.091-9.412Z" transform="translate(0 0)" fill="#101744"/>
    <path id="Path_3" data-name="Path 3" d="M101.48,83.14l-.491.862a6.342,6.342,0,0,0-8.647,2.381l-.862-.49A7.336,7.336,0,0,1,101.48,83.14Z" transform="translate(-79.743 -75.871)" fill="#101744"/>
    <path id="Path_4" data-name="Path 4" d="M334.149,336.356l-8.161-8.436-3.248,3.031,8.162,8.441a2.207,2.207,0,0,0,1.544.7h.079a2.222,2.222,0,0,0,1.623-3.738Z" transform="translate(-295.676 -305.321)" fill="#101744"/>
    <line id="Line_1" data-name="Line 1" x1="2.925" y1="3.136" transform="translate(26.11 21.334)" fill="none"/>
    <rect id="Rectangle_3" data-name="Rectangle 3" width="0.994" height="4.288" transform="matrix(0.731, -0.682, 0.682, 0.731, 25.747, 21.671)" fill="#101744"/>
    <path id="Path_5" data-name="Path 5" d="M101.48,83.14l-.491.862a6.342,6.342,0,0,0-8.647,2.381l-.862-.49A7.336,7.336,0,0,1,101.48,83.14Z" transform="translate(-79.743 -75.871)" fill="#101744"/>
  </g>
</svg>
